<?xml version="1.0" encoding="UTF-8" standalone="no"?>
<svg
   xmlns:dc="http://purl.org/dc/elements/1.1/"
   xmlns:cc="http://creativecommons.org/ns#"
   xmlns:rdf="http://www.w3.org/1999/02/22-rdf-syntax-ns#"
   xmlns:svg="http://www.w3.org/2000/svg"
   xmlns="http://www.w3.org/2000/svg"
   xmlns:xlink="http://www.w3.org/1999/xlink"
   xmlns:sodipodi="http://sodipodi.sourceforge.net/DTD/sodipodi-0.dtd"
   xmlns:inkscape="http://www.inkscape.org/namespaces/inkscape"
   inkscape:version="1.0 (4035a4fb49, 2020-05-01)"
   sodipodi:docname="LogoIcon.svg"
   width="512"
   height="512"
   viewBox="0 0 135.46666 135.46667"
   version="1.1"
   id="svg70">
  <defs
     id="defs64">
    <linearGradient
       id="linearGradient1521"
       inkscape:collect="always">
      <stop
         id="stop1517"
         offset="0"
         style="stop-color:#800000;stop-opacity:0.997" />
      <stop
         id="stop1519"
         offset="1"
         style="stop-color:#d40000;stop-opacity:1" />
    </linearGradient>
    <linearGradient
       id="linearGradient1473"
       inkscape:collect="always">
      <stop
         id="stop1469"
         offset="0"
         style="stop-color:#000080;stop-opacity:1;" />
      <stop
         id="stop1471"
         offset="1"
         style="stop-color:#009bfe;stop-opacity:0.99196786" />
    </linearGradient>
    <linearGradient
       id="linearGradient1457"
       inkscape:collect="always">
      <stop
         id="stop1453"
         offset="0"
         style="stop-color:#ffffcd;stop-opacity:1;" />
      <stop
         id="stop1455"
         offset="1"
         style="stop-color:#009bfe;stop-opacity:0.99196786" />
    </linearGradient>
    <rect
       id="rect92"
       height="15.119048"
       width="46.113094"
       y="77.10714"
       x="59.720238" />
    <rect
       id="rect86"
       height="421.06549"
       width="328.08334"
       y="64.255951"
       x="31.75" />
    <rect
       id="rect80"
       height="166.30952"
       width="123.22024"
       y="53.672619"
       x="38.55357" />
    <rect
       id="rect74"
       height="135.31548"
       width="125.4881"
       y="92.98214"
       x="43.089287" />
    <linearGradient
       gradientUnits="userSpaceOnUse"
       y2="66.683456"
       x2="105.02724"
       y1="67.660667"
       x1="1.3604864"
       id="linearGradient1459"
       xlink:href="#linearGradient1457"
       inkscape:collect="always" />
    <linearGradient
       gradientUnits="userSpaceOnUse"
       y2="66.683456"
       x2="105.02724"
       y1="67.660667"
       x1="1.3604864"
       id="linearGradient1475"
       xlink:href="#linearGradient1473"
       inkscape:collect="always" />
    <linearGradient
       gradientUnits="userSpaceOnUse"
       y2="141.64647"
       x2="135.52621"
       y1="135.25316"
       x1="64.957573"
       id="linearGradient1523"
       xlink:href="#linearGradient1521"
       inkscape:collect="always" />
    <filter
       height="1.0000622"
       y="-3.1120507e-05"
       width="1.0000579"
       x="-2.8957377e-05"
       id="filter1525"
       style="color-interpolation-filters:sRGB"
       inkscape:collect="always">
      <feGaussianBlur
         id="feGaussianBlur1527"
         stdDeviation="0.0012646226"
         inkscape:collect="always" />
    </filter>
  </defs>
  <sodipodi:namedview
     units="px"
     inkscape:window-maximized="1"
     inkscape:window-y="-8"
     inkscape:window-x="-8"
     inkscape:window-height="1017"
     inkscape:window-width="1920"
     showgrid="false"
     inkscape:document-rotation="0"
     inkscape:current-layer="layer1"
     inkscape:document-units="mm"
     inkscape:cy="253.55608"
     inkscape:cx="222.61421"
     inkscape:zoom="0.49497475"
     inkscape:pageshadow="2"
     inkscape:pageopacity="0.0"
     borderopacity="1.0"
     bordercolor="#666666"
     pagecolor="#ffffff"
     id="base" />
  <metadata
     id="metadata67">
    <rdf:RDF>
      <cc:Work
         rdf:about="">
        <dc:format>image/svg+xml</dc:format>
        <dc:type
           rdf:resource="http://purl.org/dc/dcmitype/StillImage" />
        <dc:title></dc:title>
      </cc:Work>
    </rdf:RDF>
  </metadata>
  <g
     id="layer1"
     inkscape:groupmode="layer"
     inkscape:label="Layer 1">
    <path
       id="path200"
       d="M 37.317517,123.76627 C 29.315092,121.28998 26.004329,111.49715 28.08854,96.468076 28.479809,93.646666 28.833892,90.816577 28.87539,90.178984 28.93567,89.25227 27.699635,88.550506 22.71335,86.680592 12.44504,82.829853 5.4360932,77.6755 2.7583713,72.005752 1.1772186,68.657877 1.2778608,66.40811 3.1723405,62.751972 6.0744418,57.151226 12.270462,52.786834 23.250583,48.609134 c 6.338901,-2.411821 6.021873,-1.860263 4.842791,-8.425274 -2.29048,-12.753181 0.548835,-24.118648 6.827736,-27.330699 6.441841,-3.2954077 17.775742,0.160017 28.390702,8.655604 2.017139,1.614406 3.961782,2.935283 4.321425,2.935283 0.359636,0 2.425728,-1.382347 4.591315,-3.07187 5.329148,-4.157642 11.381335,-7.500483 16.51239,-9.120391 3.788276,-1.195985 4.643423,-1.267639 7.720391,-0.646956 1.903137,0.3839 4.379857,1.372566 5.503827,2.197033 5.05405,3.707288 7.09121,13.595635 5.27022,25.58147 -1.1155,7.342167 -1.31919,6.790422 3.10119,8.400426 6.33951,2.308997 13.415,6.088384 16.91813,9.036862 3.56209,2.998099 6.50889,7.936482 6.50889,10.907904 0,2.91058 -2.91847,7.862438 -6.41644,10.886984 -3.19939,2.766372 -13.48369,8.124954 -18.20375,9.484967 l -2.55588,0.736434 0.35039,2.764118 c 0.1927,1.520252 0.53721,6.066741 0.76556,10.103301 0.76353,13.49687 -2.37296,20.05759 -10.531752,22.02968 -5.578116,1.34831 -13.959638,-1.78536 -23.500653,-8.78638 -2.949168,-2.16404 -5.647155,-3.93461 -5.995527,-3.93461 -0.348379,0 -1.696474,0.91852 -2.99578,2.04117 -3.600489,3.11095 -11.763743,8.0353 -15.62139,9.42335 -4.044087,1.45516 -9.325131,2.03503 -11.736851,1.28873 z m 10.139868,-6.93019 c 5.800164,-2.26656 15.170741,-8.91027 15.170741,-10.75599 0,-0.50039 -0.731797,-1.57023 -1.626217,-2.37742 -0.894427,-0.80719 -3.189904,-3.43022 -5.101065,-5.828926 -3.249127,-4.078002 -3.664817,-4.385337 -6.399673,-4.731411 -1.60865,-0.203567 -5.008806,-0.760857 -7.555896,-1.238449 -7.048393,-1.321569 -6.784329,-1.424868 -7.579209,2.964868 -0.381761,2.108267 -0.694108,6.418448 -0.694108,9.578198 0,12.48476 4.103489,16.17261 13.785427,12.38913 z m 50.578516,0.24204 c 3.547099,-2.68331 4.897039,-10.59482 3.392469,-19.882121 -0.50293,-3.104424 -1.07855,-5.80226 -1.27915,-5.995191 -0.20062,-0.192921 -3.855229,0.235811 -8.121371,0.952743 -4.266134,0.716939 -7.938263,1.30352 -8.160274,1.30352 -0.738049,0 -11.177588,12.381529 -10.966588,13.006629 0.337922,1.00109 7.393856,6.2683 11.129521,8.30811 6.506761,3.55294 11.311532,4.34416 14.005393,2.30631 z M 71.387836,98.45143 c 1.409556,-1.581542 2.564663,-3.216063 2.566902,-3.632257 0.0028,-0.555195 -1.672381,-0.756723 -6.290755,-0.756723 -3.462151,0 -6.294818,0.235746 -6.294818,0.523879 0,1.106723 5.313382,6.740641 6.357151,6.740641 0.604271,0 2.251957,-1.29399 3.66152,-2.87554 z m 8.706955,-11.172567 c 1.184894,-0.945721 8.703621,-13.097692 10.248756,-16.56433 L 91.663769,67.752538 90.247601,64.71364 C 88.520987,61.008606 81.06561,48.953063 79.950598,48.063115 79.06814,47.358787 57.999468,47.103804 56.179557,47.775428 c -1.339018,0.494156 -5.917708,7.338651 -9.774794,14.611931 l -2.94926,5.561393 2.775604,5.035598 c 1.526583,2.769577 4.266177,7.26828 6.087981,9.997114 l 3.312391,4.961517 3.340954,0.263474 c 5.42114,0.427509 20.239894,-0.223257 21.122358,-0.927592 z M 62.075027,78.22036 c -4.085485,-1.944823 -6.371196,-5.714128 -6.371196,-10.506569 0,-3.12626 0.303409,-4.153162 1.921013,-6.501784 3.573854,-5.18893 9.546437,-6.612682 15.59001,-3.71637 4.316887,2.068821 6.589138,5.597613 6.589138,10.232889 0,4.635277 -2.272251,8.164076 -6.589138,10.232897 -4.025708,1.929274 -7.463097,2.009167 -11.139827,0.258937 z m -15.222905,7.820839 c -0.05286,-1.027328 -5.940944,-9.83738 -6.574648,-9.83738 -0.710759,0 -2.904379,6.407429 -2.690591,7.859046 0.136285,0.925382 0.968846,1.359998 3.63886,1.899551 4.704058,0.950595 5.67196,0.964149 5.626379,0.07879 z m 47.303331,-0.170581 c 4.663963,-0.631731 4.757329,-0.800361 3.032619,-5.477979 -0.831683,-2.255607 -1.812838,-4.194531 -2.180361,-4.308727 -0.751169,-0.233399 -6.567344,9.538342 -6.12142,10.2846 0.157315,0.263257 0.757898,0.34688 1.334648,0.185828 0.576736,-0.16106 2.347268,-0.468733 3.934514,-0.683722 z M 33.759039,75.258754 c 2.385604,-6.131481 2.805681,-7.783568 2.296233,-9.030717 -0.34292,-0.839519 -1.604236,-4.114387 -2.802901,-7.277478 -1.198671,-3.163099 -2.393267,-5.960677 -2.654652,-6.216848 -0.593394,-0.581554 -3.969632,0.549916 -10.405042,3.487012 -3.294205,1.503465 -6.225648,3.437203 -8.65538,5.709577 -3.2409174,3.031005 -3.6740869,3.714613 -3.6740869,5.798226 0,2.083622 0.4331695,2.767222 3.6740869,5.798235 2.427305,2.270097 5.364466,4.208294 8.65538,5.711578 5.925243,2.706645 9.157453,3.894391 10.017138,3.680993 0.346211,-0.08595 1.94336,-3.533199 3.549224,-7.660578 z m 75.908491,6.367703 c 7.0214,-2.534933 14.14638,-7.035776 16.71002,-10.555723 2.75479,-3.782421 -0.3653,-8.812321 -8.25792,-13.312574 -4.5957,-2.620414 -12.45967,-5.67317 -13.31089,-5.167237 -0.2962,0.176055 -1.01924,1.747103 -1.60674,3.491211 -0.58752,1.744115 -1.90176,5.126416 -2.92056,7.516234 -1.801768,4.226472 -1.823497,4.398789 -0.795416,6.310749 0.581326,1.081097 1.895666,4.29353 2.920776,7.138729 1.90843,5.296962 2.27528,6.117805 2.73414,6.117805 0.14478,0 2.18173,-0.692639 4.52659,-1.539194 z M 43.743672,54.873638 c 4.162194,-6.858121 4.208445,-6.673259 -1.38535,-5.536777 -5.395846,1.096259 -5.621199,1.306135 -4.640448,4.321641 1.29876,3.993276 2.173697,5.898106 2.705442,5.89001 0.268227,-0.0043 1.762387,-2.107777 3.320356,-4.674874 z m 53.282453,0.457433 c 1.221762,-3.125482 1.359221,-4.014781 0.711538,-4.603241 -0.943539,-0.857272 -8.170493,-2.144631 -8.762606,-1.560916 -0.534006,0.526444 5.278647,10.436702 5.989341,10.211506 0.301091,-0.09541 1.228871,-1.916713 2.061727,-4.047349 z M 41.792418,43.547587 c 2.63116,-0.480653 6.068809,-1.033435 7.639224,-1.228416 2.647012,-0.328646 3.117905,-0.676931 6.455266,-4.774429 1.979983,-2.430956 4.306746,-5.058486 5.170594,-5.838948 0.863847,-0.780468 1.570624,-1.871656 1.570624,-2.42487 0,-1.304536 -8.67029,-7.552582 -13.548305,-9.763291 -9.80155,-4.44203 -14.091854,-2.412238 -15.355324,7.264772 -0.499961,3.829256 -0.05178,11.691687 0.905259,15.882394 0.464888,2.035554 0.696182,2.064059 7.162662,0.882788 z m 59.266232,-3.515071 c 0.42644,-2.413945 0.77176,-6.568346 0.76738,-9.23201 -0.0206,-12.471051 -4.732882,-16.269539 -14.609262,-11.776179 -4.414987,2.008647 -10.819924,6.210133 -13.161157,8.63342 -1.758562,1.82019 -1.910181,1.526626 4.507252,8.727013 l 4.918809,5.518914 4.523422,0.714239 c 2.487882,0.392831 5.514861,0.931979 6.726612,1.198103 5.315884,1.167473 5.468424,1.076251 6.326944,-3.7835 z m -27.099849,0.713985 c 0,-1.117526 -5.18296,-6.616434 -6.235985,-6.616124 -1.058066,3.17e-4 -6.353651,5.517778 -6.353651,6.619862 0,0.412622 2.263983,0.644371 6.294818,0.644371 4.053607,0 6.294818,-0.230755 6.294818,-0.648109 z"
       style="display:inline;opacity:1;fill:url(#linearGradient1475);fill-opacity:1;stroke:url(#linearGradient1459);stroke-width:0.61731;stroke-opacity:1" />
    <text
       style="font-style:normal;font-weight:normal;font-size:10.5833px;line-height:1.25;font-family:sans-serif;white-space:pre;shape-inside:url(#rect74);display:inline;fill:#000000;fill-opacity:1;stroke:none;"
       id="text72"
       xml:space="preserve" />
    <text
       style="font-style:normal;font-weight:normal;font-size:10.5833px;line-height:1.25;font-family:sans-serif;white-space:pre;shape-inside:url(#rect80);display:inline;fill:#000000;fill-opacity:1;stroke:none;"
       id="text78"
       xml:space="preserve" />
    <text
       transform="matrix(0.96485676,0,0,0.96485676,-17.037652,-68.734678)"
       style="font-size:10.5833px;line-height:1.25;font-family:'Calisto MT';-inkscape-font-specification:'Calisto MT';white-space:pre;shape-inside:url(#rect86);fill:url(#linearGradient1523);fill-opacity:1;filter:url(#filter1525);"
       id="text84"
       xml:space="preserve"><tspan
         x="31.75"
         y="190.56735"><tspan
           style="font-size:140.758px;fill:url(#linearGradient1523);fill-opacity:1">D</tspan></tspan></text>
    <text
       style="font-size:10.5833px;line-height:1.25;font-family:'Calisto MT';-inkscape-font-specification:'Calisto MT';white-space:pre;shape-inside:url(#rect92);display:inline;"
       id="text90"
       xml:space="preserve" />
  </g>
</svg>
